<?xml version="1.0" standalone="no"?><!DOCTYPE svg PUBLIC "-//W3C//DTD SVG 1.1//EN" "http://www.w3.org/Graphics/SVG/1.1/DTD/svg11.dtd"><svg t="1583415788659" class="icon" viewBox="0 0 1024 1024" version="1.1" xmlns="http://www.w3.org/2000/svg" p-id="2269" xmlns:xlink="http://www.w3.org/1999/xlink" width="200" height="200"><defs><style type="text/css"></style></defs><path d="M892.295798 0H131.704202C58.921824 0 0.002757 60.179368 0.002757 134.379584v531.37437c0 74.042678 59.076605 134.537122 131.701445 134.537121h402.193526l206.137967 210.54902c11.027633 11.342708 27.254007 15.753761 42.377618 11.657784a44.425607 44.425607 0 0 0 31.113679-31.743829 45.607139 45.607139 0 0 0-11.342708-43.322844L591.792801 732.549902a71.994689 71.994689 0 0 0-51.829875-22.055266H131.704202a43.322844 43.322844 0 0 1-31.03491-13.075622 45.292064 45.292064 0 0 1-12.839316-31.66506V134.458353c0-24.733405 19.613433-44.819451 43.874226-44.819451h760.591596c24.260792 0 43.874225 20.086046 43.874226 44.89822v531.2956c0 24.733405-19.613433 44.819451-43.874226 44.819451h-99.406234a44.346838 44.346838 0 0 0-43.874225 44.819451c0 24.733405 19.692202 44.819451 43.874225 44.819451h99.406234c72.546071 0 131.701445-60.336906 131.701445-134.458353V134.458353C1023.997243 60.415675 964.920638 0 892.295798 0z" p-id="2270"></path></svg>