<?xml version="1.0" standalone="no"?><!DOCTYPE svg PUBLIC "-//W3C//DTD SVG 1.1//EN" "http://www.w3.org/Graphics/SVG/1.1/DTD/svg11.dtd"><svg t="1582640046262" class="icon" viewBox="0 0 1024 1024" version="1.1" xmlns="http://www.w3.org/2000/svg" p-id="8789" xmlns:xlink="http://www.w3.org/1999/xlink" width="200" height="200"><defs><style type="text/css"></style></defs><path d="M512.008 283.700007c-204.076998 0-370.149996 166.042998-370.149996 370.119997 0 204.136998 166.072998 370.179996 370.149996 370.179996 204.121998 0 370.149996-166.072998 370.149996-370.179996 0-204.076998-166.027998-370.119996-370.149996-370.119997z m0 683.499994c-172.777998 0-313.319997-140.586999-313.319997-313.349997 0-172.747998 140.541999-313.288997 313.319997-313.288997s313.318997 140.556999 313.318997 313.289997c0 172.746998-140.540999 313.347997-313.319997 313.347997z m370.149996-910.383992V210.750008c0 30.375-12.895 56.784999-38.412999 78.488999l-55.014 44.874a28.335 28.335 0 0 1-17.965 6.417c-8.233 0-16.421-3.587-22.020999-10.458-9.913-12.168-8.097-30.073 4.056-39.956l54.559999-44.495999c16.059-13.666 17.966-26.485 17.966-34.84V56.816009H654.228999V232.060008c0 15.68-12.729 28.408-28.408 28.407999-15.695 0-28.423-12.729-28.423-28.407999V56.816009H434.003001V232.060008c0 15.68-12.698 28.408-28.408 28.407999-15.68 0-28.423-12.729-28.423-28.407999V56.816009H198.690003V210.750008c0 6.932 7.567 26.395 17.843 34.734l54.666999 44.616999c12.168 9.914 13.985 27.818 4.056 39.956-9.883 12.183-27.787 14.015-39.985999 4.086l-54.56-44.496c-24.292-19.63-38.866-55.528999-38.865999-78.881999V56.831009C141.843004 25.51701 167.329003 0.00001 198.673003 0.00001h626.668994c31.329-0.015 56.814999 25.532 56.814999 56.815999zM703.369998 547.347005H592.614999L555.58 433.564006c-3.95-16.618-19.19-34.552-43.36-34.552-24.216 0-39.442 17.934-42.71 32.282l-37.715999 116.052999H315.740002c-21.825 0-40.062 12.698-46.464 32.372999-7.386 22.763 3.103 41.969 14.544 49.218l98.269999 71.435999-36.368999 111.905999c-7.87 16.543-5.857 39.048 13.469999 53.078 8.158 5.948 17.768 9.096 27.742 9.095999 12.79 0 22.309-5.207 26.819-8.036999l98.496999-71.557 92.290999 66.896c3.633 3.178 16.936 13.606 34.75 13.605999 9.292 0 18.161-2.906 25.653-8.323999 18.722-13.621 21.28-36.656 14.241999-53.456l-36.822999-113.328999 91.549999-66.637999c14.802-8.808 27.197-29.24 19.327-53.456-6.63-20.295-25.154-32.872-49.733-32.871999-0.045 0.06-0.09 0.06-0.136 0.06z" p-id="8790"></path></svg>