<?xml version="1.0" standalone="no"?><!DOCTYPE svg PUBLIC "-//W3C//DTD SVG 1.1//EN" "http://www.w3.org/Graphics/SVG/1.1/DTD/svg11.dtd"><svg t="1582639239243" class="icon" viewBox="0 0 1024 1024" version="1.1" xmlns="http://www.w3.org/2000/svg" p-id="6402" xmlns:xlink="http://www.w3.org/1999/xlink" width="200" height="200"><defs><style type="text/css"></style></defs><path d="M875.406222 1024H149.31437A149.010963 149.010963 0 0 1 0.379259 874.875259V148.973037A148.973037 148.973037 0 0 1 149.31437 0h726.091852a149.010963 149.010963 0 0 1 148.973037 149.048889v725.902222a149.048889 149.048889 0 0 1-148.973037 149.048889zM384.303407 342.888296v70.921482H229.982815v59.050666h154.320592v55.864889h-128.568888v247.504593h60.681481v-189.25037h67.925333v230.286222h61.970963v-230.286222h67.925334v105.547851q0 22.528-27.079111 22.755556l-28.975408-2.654815 15.890963 58.823111h32.312889q67.242667 0 67.242667-65.687703v-177.038223h-127.35526v-55.751111h137.140149v-59.164444h-137.140149v-70.921482h118.025482V285.051259h-118.025482V206.734222h-61.970963v78.317037H324.304593q4.437333-18.014815 10.505481-51.086222l-58.671407-9.291852q-12.515556 91.022222-59.998815 142.677334l50.782815 36.48474a232.144593 232.144593 0 0 0 38.267259-60.946963z m230.172445 329.955556h60.681481V266.467556H614.4z m127.469037 138.467555q65.877333 0 65.915259-67.697777V206.734222h-62.122667v520.950519q0 27.268741-25.751703 27.230815-42.81837 0-90.339556-3.792593l13.729185 60.188444z" fill="#95969E" p-id="6403"></path></svg>