<?xml version="1.0" standalone="no"?><!DOCTYPE svg PUBLIC "-//W3C//DTD SVG 1.1//EN" "http://www.w3.org/Graphics/SVG/1.1/DTD/svg11.dtd"><svg t="1582512900676" class="icon" viewBox="0 0 1024 1024" version="1.1" xmlns="http://www.w3.org/2000/svg" p-id="3666" xmlns:xlink="http://www.w3.org/1999/xlink" width="200" height="200"><defs><style type="text/css"></style></defs><path d="M880.382133 963.626262h-736.764266c-22.61457 0-40.931348-17.60048-40.931348-39.294095v-824.766663c0-21.693614 18.316778-39.294094 40.931348-39.294094h736.764266c22.61457 0 40.931348 17.60048 40.931348 39.294094v824.766663c0 21.795943-18.316778 39.294094-40.931348 39.294095z m-43.694215-779.946838c0-21.693614-18.316778-39.294094-40.931348-39.294094H226.708504c-22.61457 0-40.931348 17.60048-40.931348 39.294094v656.641152c0 21.693614 18.316778 39.294094 40.931348 39.294094h569.048066c22.61457 0 40.931348-17.60048 40.931348-39.294094v-656.641152z m-116.449685 88.002399c1.944239 0.716299 7.776956 2.455881 17.498152 5.116418 14.018987 3.78615 23.84251 6.856001 29.368242 9.209554 5.525732 2.353553 9.925852 5.832717 13.098031 10.437493 3.172179 4.502448 4.707105 10.232837 4.707105 16.98651 0 6.651344-1.944239 12.893375-5.832717 18.726091s-9.41421 10.335165-16.679524 13.507345c-7.265314 3.172179-15.553912 4.809433-24.661137 4.809434-15.246927 0-26.810033-3.172179-34.791646-9.516539-7.981613-6.344359-13.098031-15.656241-15.246927-28.140301l19.647047-3.069852c1.125612 7.879285 4.195463 13.916658 9.209553 18.112122s12.074748 6.344359 21.079644 6.344359c9.107225 0 15.860897-1.841911 20.261017-5.525732 4.40012-3.683821 6.651344-8.083941 6.651345-13.098031 0-4.502448-1.944239-7.981613-5.832718-10.539823-2.660538-1.739582-9.516538-3.990806-20.261017-6.753672-14.530629-3.683821-24.661137-6.856001-30.289197-9.516538-5.62806-2.660538-9.925852-6.446687-12.791047-11.153793-2.865194-4.707105-4.297792-9.925852-4.297791-15.758569 0-5.218747 1.22794-10.02818 3.581493-14.530628 2.353553-4.502448 5.62806-8.083941 9.721195-11.051464 3.069851-2.251224 7.265314-4.195463 12.586389-5.832717 5.321075-1.534926 11.051464-2.353553 17.088838-2.353553 9.209553 0 17.293495 1.330269 24.149496 3.990806 6.958329 2.660538 12.074748 6.242031 15.349255 10.744479 3.274508 4.502448 5.62806 10.539822 6.856001 18.112122l-19.44239 2.660537c-0.920955-6.037374-3.479165-10.744479-7.674628-14.121315-4.195463-3.376836-10.232837-5.116419-17.907465-5.116418-9.107225 0-15.656241 1.534926-19.544719 4.502448-3.888478 3.069851-5.832717 6.549016-5.832717 10.539822 0 2.558209 0.818627 4.911762 2.455881 6.958329 1.739582 2.148896 4.297792 3.990806 7.776956 5.321076z m-104.784251 76.132307l-18.623763-70.094933-4.502448-19.954033-23.740182 90.048966h-20.670331l-35.81493-117.063655h20.568003l18.623763 67.639052 6.958329 25.172779c0.306985-1.22794 2.353553-9.311882 6.037374-24.149495l18.623764-68.560008h20.363345l17.498151 67.946038 5.832718 22.409913 6.753672-22.61457 20.056361-67.741381h19.340061l-36.633556 117.063655-20.670331-0.102328zM408.341361 294.296393c0.716299 12.893375 4.40012 22.716898 10.949136 29.572898 6.549016 6.856001 14.735285 10.232837 24.45648 10.232838 7.265314 0 13.507345-1.944239 18.623763-5.730389 5.116419-3.78615 9.209553-9.925852 12.279405-18.316778l20.568002 2.558209c-3.274508 11.972419-9.209553 21.284301-18.009793 27.935645-8.80024 6.651344-19.954032 9.925852-33.563705 9.925852-17.088838 0-30.698511-5.321075-40.726692-15.860898-10.02818-10.539822-15.04227-25.377436-15.04227-44.410512 0-19.749375 5.116419-34.996303 15.246927-45.84311 10.130509-10.846807 23.330868-16.372539 39.498751-16.372539 15.656241 0 28.447287 5.321075 38.373139 15.963225 9.925852 10.64215 14.837614 25.684421 14.837614 45.024483 0 1.22794 0 2.967523-0.102329 5.321076H408.341361z m59.04347-38.475468c-6.344359-7.674628-14.530629-11.460777-24.558809-11.460777-9.107225 0-16.781853 3.069851-23.023883 9.107225-6.242031 6.139702-9.618867 14.223643-10.335166 24.45648H474.854802c-0.920955-9.823524-3.376836-17.191166-7.469971-22.102928z m-129.445389 20.772659c0-8.083941-0.716299-14.121315-2.353552-18.112121-1.534926-3.990806-4.297792-7.162986-8.18627-9.618867-3.888478-2.353553-8.493255-3.581493-13.81433-3.581493-8.390926 0-15.758569 2.660538-21.898271 8.083941s-9.209553 15.553912-9.209553 30.493855v63.955231h-19.851704v-117.063655H280.430898v16.679524c8.595583-12.893375 21.079644-19.340062 37.247527-19.340062 7.060658 0 13.507345 1.22794 19.44239 3.78615 5.935045 2.558209 10.335165 5.832717 13.302689 9.925852 2.967523 4.093135 5.01409 9.004897 6.139702 14.632957 0.716299 3.683821 1.125612 10.130509 1.125612 19.340062v72.039172h-19.851704v-71.220546zM291.175377 399.2853h439.807335c11.256121 0 20.465674 8.80024 20.465674 19.647047V464.263815c0 10.846807-9.209553 19.647047-20.465674 19.647047H291.175377c-11.256121 0-20.465674-8.80024-20.465674-19.647047v-45.331468c0-10.846807 9.107225-19.647047 20.465674-19.647047z m0 140.599181h439.807335c11.256121 0 20.465674 8.80024 20.465674 19.647047v45.331468c0 10.846807-9.209553 19.647047-20.465674 19.647047H291.175377c-11.256121 0-20.465674-8.80024-20.465674-19.647047V559.531528c0-10.949136 9.107225-19.647047 20.465674-19.647047z m0 169.148796h439.807335c11.256121 0 20.465674 8.80024 20.465674 19.647047v45.331468c0 10.846807-9.209553 19.647047-20.465674 19.647047H291.175377c-11.256121 0-20.465674-8.80024-20.465674-19.647047v-45.331468c0-10.949136 9.107225-19.647047 20.465674-19.647047z" fill="" p-id="3667"></path></svg>