<?xml version="1.0" standalone="no"?><!DOCTYPE svg PUBLIC "-//W3C//DTD SVG 1.1//EN" "http://www.w3.org/Graphics/SVG/1.1/DTD/svg11.dtd"><svg t="1582638647774" class="icon" viewBox="0 0 1024 1024" version="1.1" xmlns="http://www.w3.org/2000/svg" p-id="3916" xmlns:xlink="http://www.w3.org/1999/xlink" width="200" height="200"><defs><style type="text/css"></style></defs><path d="M951.296 857.088l-438.272 92.672-439.808-90.112-19.968 67.584 462.848 96.768 455.68-97.792-20.48-69.12z m-121.856-324.096l-22.528-67.584-187.392 73.216 22.528 67.584 187.392-73.216z m0-214.016l-22.528-67.584-187.392 73.216 22.528 67.584 187.392-73.216z m-423.936 219.648l-187.392-73.216-22.528 67.584 187.392 73.216 22.528-67.584z m0-214.016l-187.392-73.216-22.528 67.584 187.392 73.216 22.528-67.584z" p-id="3917"></path><path d="M830.464 0c-70.144 0-252.416 89.6-317.952 122.88-64.512-33.28-244.224-122.88-317.952-122.88-97.28 0-176.64 79.36-176.64 176.64v423.936c0 86.016 66.56 155.136 169.472 176.128l324.608 65.024 41.472-8.192c9.728-2.048 241.664-44.544 286.208-57.344 46.08-13.824 166.4-72.192 166.4-175.104v-423.936c1.024-96.256-79.872-177.152-175.616-177.152z m-741.888 600.576v-423.936c0-58.368 47.616-105.984 105.984-105.984 46.08 0 187.904 65.024 280.576 112.128v579.072l-273.408-54.784c-54.784-10.752-113.152-44.544-113.152-106.496z m847.872 0c0 54.784-79.872 96.768-116.224 107.52-33.28 9.728-205.312 41.984-274.944 54.784V185.344c93.696-47.616 240.64-114.688 284.672-114.688 55.296 0 105.984 50.688 105.984 105.984v423.936h0.512z" p-id="3918"></path></svg>