<?xml version="1.0" standalone="no"?><!DOCTYPE svg PUBLIC "-//W3C//DTD SVG 1.1//EN" "http://www.w3.org/Graphics/SVG/1.1/DTD/svg11.dtd"><svg t="1582688250380" class="icon" viewBox="0 0 1025 1024" version="1.1" xmlns="http://www.w3.org/2000/svg" p-id="4061" xmlns:xlink="http://www.w3.org/1999/xlink" width="200.1953125" height="200"><defs><style type="text/css"></style></defs><path d="M957.806 499.371H916.51V375.71c0-10.037-4.494-19.582-12.366-25.946-61.437-49.99-129.435-75.345-202.09-75.345-2.56 0-5.052 0.066-7.512 0.131 1.017-8.167 1.673-16.466 1.673-24.896 0-110.673-89.647-200.418-200.418-200.418-110.705 0-200.418 89.713-200.418 200.418 0 8.43 0.624 16.696 1.64 24.83-70.359 1.477-136.618 26.767-196.383 75.313-7.84 6.33-12.694 15.876-12.694 25.946v123.662H67.046C30.145 499.404 0 530.14 0 567.041v66.817c0 36.836 30.145 65.997 67.046 65.997h20.928v241.583c0 12.695 7.479 24.208 18.795 29.85 4.724 2.329 10.005 3.477 15.155 3.477 7.052 0 14.17-2.132 20.041-6.593 0.656-0.46 63.504-46.513 162.368-46.513 57.305 0 115.527 14.925 171.979 46.447 19.812 11.021 44.446 4.527 52.614 0 56.746-30.768 114.674-46.447 171.946-46.447 97.256 0 161.252 45.725 162.466 46.611 5.904 4.363 12.825 6.495 19.812 6.495 5.019 0 10.234-1.148 14.826-3.477 11.382-5.642 18.435-17.155 18.435-29.85V699.855h41.363c36.901 0 66.292-29.16 66.292-65.997V567.04c-0.033-36.902-29.358-67.67-66.26-67.67zM305.12 854.875c-62.552 0-114.477 15.384-148.69 30.505V699.79h44.25c36.87 0 65.702-29.096 65.702-65.932V567.04c0-36.902-28.8-67.637-65.702-67.637h-44.25V392.11c43.988-33.72 95.027-50.81 147.214-50.81 62.783 0 116.052 24.733 145.016 41.527 3.576 3.641 5.904 7.348 10.825 11.054V886.07c-51.335-20.763-102.637-31.194-154.365-31.194z m545.425 30.505c-36.705-15.121-86.235-30.505-148.755-30.505-51.76 0-105.457 10.398-154.364 31.096V389.322c24.437-15.942 84.037-48.054 155.512-48.054 52.155 0 101.095 17.09 147.542 50.81V499.37h-26.34c-36.902 0-66.489 30.768-66.489 67.637v66.817c0 36.836 29.587 65.931 66.489 65.931h26.34v185.592h0.065z" p-id="4062"></path></svg>