<?xml version="1.0" standalone="no"?><!DOCTYPE svg PUBLIC "-//W3C//DTD SVG 1.1//EN" "http://www.w3.org/Graphics/SVG/1.1/DTD/svg11.dtd"><svg t="1582638707068" class="icon" viewBox="0 0 1059 1024" version="1.1" xmlns="http://www.w3.org/2000/svg" p-id="4711" xmlns:xlink="http://www.w3.org/1999/xlink" width="206.8359375" height="200"><defs><style type="text/css"></style></defs><path d="M68.325517 716.8A68.290207 68.290207 0 0 1 0 648.545103v-273.090206a68.290207 68.290207 0 0 1 68.325517-68.290207h170.866759l307.517793-307.2v1024l-307.517793-307.2H68.325517zM649.216 247.808a289.544828 289.544828 0 0 1 0 528.384V247.808z m0-237.568v109.991724a405.009655 405.009655 0 0 1 0 783.501242v109.991724a512.635586 512.635586 0 0 0 405.327448-432.375173l0.211862-1.412414c0.918069-6.779586 1.659586-13.629793 2.295173-20.51531 0-1.024 0-2.01269 0.247172-3.03669q0.918069-10.134069 1.377104-20.268137v-2.895449c0.282483-7.062069 0.459034-14.124138 0.459034-21.186207 0-7.062069 0-14.124138-0.459034-21.186207v-3.001379q-0.423724-10.098759-1.341793-20.126896c0-1.094621 0-2.189241-0.282483-3.283862a480.467862 480.467862 0 0 0-2.259862-20.268138c0-0.600276 0-1.165241-0.247173-1.765518A512.635586 512.635586 0 0 0 649.25131 10.27531z" p-id="4712"></path></svg>