<?xml version="1.0" standalone="no"?><!DOCTYPE svg PUBLIC "-//W3C//DTD SVG 1.1//EN" "http://www.w3.org/Graphics/SVG/1.1/DTD/svg11.dtd"><svg t="1582688353927" class="icon" viewBox="0 0 1024 1024" version="1.1" xmlns="http://www.w3.org/2000/svg" p-id="6703" xmlns:xlink="http://www.w3.org/1999/xlink" width="200" height="200"><defs><style type="text/css"></style></defs><path d="M836.864 160.896h-147.6352A58.88 58.88 0 0 0 630.1184 102.4h-236.288a58.88 58.88 0 0 0-59.0848 58.5216H187.0848A58.88 58.88 0 0 0 128 219.4432v643.6864A58.88 58.88 0 0 0 187.0848 921.6H836.864A58.88 58.88 0 0 0 896 863.0784V219.4432a58.88 58.88 0 0 0-59.136-58.5216z m-413.4656 0h177.2544a29.2352 29.2352 0 1 1 0 58.4704h-177.2544a29.2352 29.2352 0 1 1 0-58.4704zM836.864 833.7664a29.3888 29.3888 0 0 1-29.4656 29.2864H216.6528a29.3888 29.3888 0 0 1-29.5168-29.2864V248.6528a29.3632 29.3632 0 0 1 29.5168-29.2096h118.1696a58.88 58.88 0 0 0 59.0848 58.5216h236.2624a58.88 58.88 0 0 0 59.136-58.5216h118.1696a29.3888 29.3888 0 0 1 29.4656 29.2352v585.088z m-170.112-400.7168l-215.3216 213.2992-97.6896-96.768a28.5184 28.5184 0 0 0-40.064 0 27.8784 27.8784 0 0 0 0 39.68l113.4592 112.384a30.9504 30.9504 0 0 0 4.8128 6.2976 30.336 30.336 0 0 0 21.7088 8.704 28.16 28.16 0 0 0 18.7136-6.7072 23.3984 23.3984 0 0 0 2.432-2.1504l234.6752-232.448a29.8496 29.8496 0 0 0 0.1536-42.4448 30.5408 30.5408 0 0 0-42.8544 0.1536z m0 0" p-id="6704"></path></svg>