<?xml version="1.0" standalone="no"?><!DOCTYPE svg PUBLIC "-//W3C//DTD SVG 1.1//EN" "http://www.w3.org/Graphics/SVG/1.1/DTD/svg11.dtd"><svg t="1582639702271" class="icon" viewBox="0 0 1024 1024" version="1.1" xmlns="http://www.w3.org/2000/svg" p-id="8043" xmlns:xlink="http://www.w3.org/1999/xlink" width="200" height="200"><defs><style type="text/css"></style></defs><path d="M789.333333 258.133333V597.333333h25.6l66.133334-313.6c0-2.133333-2.133333-4.266667-8.533334-6.4l-83.2-19.2z m0-42.666666l93.866667 19.2c27.733333 6.4 46.933333 29.866667 40.533333 57.6l-64 305.066666h14.933334c36.266667 0 64 27.733333 64 64v234.666667c0 36.266667-27.733333 64-64 64H149.333333c-36.266667 0-64-27.733333-64-64V661.333333c0-36.266667 27.733333-64 64-64h27.733334L93.866667 232.533333c-6.4-27.733333 10.666667-57.6 40.533333-64L234.666667 145.066667v-21.333334C234.666667 89.6 262.4 64 296.533333 64h430.933334C761.6 64 789.333333 89.6 789.333333 123.733333v91.733334zM234.666667 189.866667l-91.733334 21.333333c-6.4 2.133333-10.666667 6.4-8.533333 12.8L221.866667 597.333333h12.8V189.866667zM746.666667 597.333333V234.666667H277.333333v362.666666h106.666667v21.333334c0 70.4 57.6 128 128 128s128-57.6 128-128v-21.333334h106.666667z m0-405.333333V123.733333c0-8.533333-8.533333-17.066667-19.2-17.066666H296.533333c-10.666667 0-19.2 8.533333-19.2 17.066666V192h469.333334z m-320 149.333333c-12.8 0-21.333333-8.533333-21.333334-21.333333s8.533333-21.333333 21.333334-21.333333h234.666666c12.8 0 21.333333 8.533333 21.333334 21.333333s-8.533333 21.333333-21.333334 21.333333H426.666667z m0 85.333334c-12.8 0-21.333333-8.533333-21.333334-21.333334s8.533333-21.333333 21.333334-21.333333h234.666666c12.8 0 21.333333 8.533333 21.333334 21.333333s-8.533333 21.333333-21.333334 21.333334H426.666667z m0 85.333333c-12.8 0-21.333333-8.533333-21.333334-21.333333s8.533333-21.333333 21.333334-21.333334h234.666666c12.8 0 21.333333 8.533333 21.333334 21.333334s-8.533333 21.333333-21.333334 21.333333H426.666667z m-64-170.666667c-12.8 0-21.333333-8.533333-21.333334-21.333333s8.533333-21.333333 21.333334-21.333333 21.333333 8.533333 21.333333 21.333333-8.533333 21.333333-21.333333 21.333333z m0 170.666667c-12.8 0-21.333333-8.533333-21.333334-21.333333s8.533333-21.333333 21.333334-21.333334 21.333333 8.533333 21.333333 21.333334-8.533333 21.333333-21.333333 21.333333z m0-85.333333c-12.8 0-21.333333-8.533333-21.333334-21.333334s8.533333-21.333333 21.333334-21.333333 21.333333 8.533333 21.333333 21.333333-8.533333 21.333333-21.333333 21.333334zM149.333333 640c-12.8 0-21.333333 8.533333-21.333333 21.333333v234.666667c0 12.8 8.533333 21.333333 21.333333 21.333333h725.333334c12.8 0 21.333333-8.533333 21.333333-21.333333V661.333333c0-12.8-8.533333-21.333333-21.333333-21.333333h-194.133334c-10.666667 83.2-83.2 149.333333-168.533333 149.333333s-157.866667-66.133333-168.533333-149.333333H149.333333z" p-id="8044"></path></svg>