<?xml version="1.0" standalone="no"?><!DOCTYPE svg PUBLIC "-//W3C//DTD SVG 1.1//EN" "http://www.w3.org/Graphics/SVG/1.1/DTD/svg11.dtd"><svg t="1582638560796" class="icon" viewBox="0 0 1024 1024" version="1.1" xmlns="http://www.w3.org/2000/svg" p-id="3423" xmlns:xlink="http://www.w3.org/1999/xlink" width="200" height="200"><defs><style type="text/css"></style></defs><path d="M894.293333 1000.106667H129.706667c-58.026667 0-102.4-44.373333-102.4-102.4V126.293333c0-58.026667 44.373333-102.4 102.4-102.4h764.586666c20.48 0 34.133333 13.653333 34.133334 34.133334s-13.653333 34.133333-34.133334 34.133333H129.706667c-20.48 0-34.133333 13.653333-34.133334 34.133333v768c0 20.48 13.653333 34.133333 34.133334 34.133334h764.586666c20.48 0 34.133333-13.653333 34.133334-34.133334v-232.106666c0-20.48 13.653333-34.133333 34.133333-34.133334s34.133333 13.653333 34.133333 34.133334v232.106666c0 58.026667-47.786667 105.813333-102.4 105.813334z" p-id="3424"></path><path d="M201.386667 262.826667h354.986666v68.266666H201.386667zM201.386667 481.28h218.453333v68.266667H201.386667zM201.386667 703.146667h153.6v68.266666H201.386667zM812.373333 477.866667c-6.826667 0-13.653333-3.413333-20.48-6.826667-13.653333-10.24-17.066667-34.133333-6.826666-47.786667l150.186666-197.973333c10.24-13.653333 34.133333-17.066667 47.786667-6.826667 13.653333 10.24 17.066667 34.133333 6.826667 47.786667l-150.186667 197.973333c-6.826667 10.24-17.066667 13.653333-27.306667 13.653334zM634.88 713.386667s0-17.066667 3.413333-37.546667c0-10.24 0-23.893333 3.413334-37.546667 0-13.653333 3.413333-27.306667 6.826666-40.96 3.413333-13.653333 0-30.72 6.826667-40.96 6.826667-10.24 20.48-13.653333 34.133333-17.066666 13.653333-3.413333 27.306667-3.413333 40.96 0 10.24 0 20.48 3.413333 20.48 3.413333 6.826667 0 10.24 3.413333 13.653334 6.826667 0 0 6.826667 6.826667 10.24 17.066666 6.826667 10.24 10.24 23.893333 13.653333 37.546667 3.413333 13.653333 3.413333 27.306667-3.413333 37.546667-6.826667 10.24-23.893333 13.653333-34.133334 20.48-10.24 6.826667-20.48 17.066667-34.133333 20.48-10.24 6.826667-23.893333 13.653333-30.72 17.066666l-34.133333 17.066667c-6.826667 6.826667-13.653333 3.413333-17.066667-3.413333 3.413333 0 0 0 0 0z" p-id="3425"></path></svg>