<?xml version="1.0" standalone="no"?><!DOCTYPE svg PUBLIC "-//W3C//DTD SVG 1.1//EN" "http://www.w3.org/Graphics/SVG/1.1/DTD/svg11.dtd"><svg t="1582639400881" class="icon" viewBox="0 0 1024 1024" version="1.1" xmlns="http://www.w3.org/2000/svg" p-id="7182" xmlns:xlink="http://www.w3.org/1999/xlink" width="200" height="200"><defs><style type="text/css"></style></defs><path d="M512.251279 1023.997844a50.874168 50.874168 0 0 1-17.24548-2.856282C478.299239 1014.890075 80.8448 866.471156 80.8448 455.112548v-216.10743a57.125655 57.125655 0 0 1 31.257434-51.790335L489.616586 5.167177a51.466982 51.466982 0 0 1 44.730465 0l377.514352 182.047606c19.077813 9.323338 31.311326 29.532886 31.257434 51.736443v216.161322c0 413.029264-397.454439 559.777527-414.160998 566.029014a50.92806 50.92806 0 0 1-16.70656 2.856282z m-30.502944-341.298842a53.353206 53.353206 0 0 0 37.724489-16.70656L738.328753 436.196412a59.604693 59.604693 0 0 0-2.856282-77.981909 52.814285 52.814285 0 0 0-74.263352-3.017959l-179.999705 188.999691-70.598687-74.101675a52.814285 52.814285 0 0 0-74.209459 3.017959 59.604693 59.604693 0 0 0-2.856283 77.981908l109.401019 114.898015c10.293396 10.778425 24.251457 16.760452 38.802331 16.70656z" p-id="7183"></path></svg>