<?xml version="1.0" standalone="no"?><!DOCTYPE svg PUBLIC "-//W3C//DTD SVG 1.1//EN" "http://www.w3.org/Graphics/SVG/1.1/DTD/svg11.dtd"><svg t="1582688392183" class="icon" viewBox="0 0 1024 1024" version="1.1" xmlns="http://www.w3.org/2000/svg" p-id="7434" xmlns:xlink="http://www.w3.org/1999/xlink" width="200" height="200"><defs><style type="text/css"></style></defs><path d="M56.32 274.944l457.728 204.288c1.536 0.512 3.072 0.512 4.608 0L967.68 273.408c4.096-1.536 4.096-7.168 0-8.704l-453.12-204.288c-1.536-0.512-3.072-0.512-4.608 0L56.32 266.24c-1.024 0.512-2.048 1.536-2.56 2.56-1.536 2.048-0.512 5.12 2.56 6.144zM970.24 748.544l-84.992-38.4-83.968-39.424-286.208 119.808L227.328 670.72 138.24 712.704l-84.992 38.4c-1.024 0.512-2.048 1.536-2.56 2.56-1.024 2.56 0 5.632 2.56 6.656l460.288 204.8c1.536 0.512 3.072 0.512 4.608 0l452.608-207.872c1.024-0.512 2.048-1.536 2.56-2.048 1.024-2.56 0-5.632-3.072-6.656z" p-id="7435"></path><path d="M981.504 503.296l-87.04-39.424-84.48-41.472-288.768 128c-4.096 2.048-8.704 2.048-12.8 0l-289.28-128-90.112 44.032-87.04 39.424c-1.024 0.512-2.048 1.536-2.56 2.56-1.024 2.56 0 5.632 2.56 6.656l471.04 209.92c1.536 0.512 3.072 0.512 4.608 0l463.36-212.48c1.024-0.512 2.048-1.536 2.56-2.56 1.536-2.56 0.512-5.12-2.048-6.656z" p-id="7436"></path></svg>