<?xml version="1.0" standalone="no"?><!DOCTYPE svg PUBLIC "-//W3C//DTD SVG 1.1//EN" "http://www.w3.org/Graphics/SVG/1.1/DTD/svg11.dtd"><svg t="1582639129315" class="icon" viewBox="0 0 1024 1024" version="1.1" xmlns="http://www.w3.org/2000/svg" p-id="5638" xmlns:xlink="http://www.w3.org/1999/xlink" width="200" height="200"><defs><style type="text/css"></style></defs><path d="M316.123332 340.708775c20.920472 63.487963 79.132268 63.37233 99.977016 0 6.872524-3.622504 13.95278-14.331403 15.095813-23.192212 1.222851-9.280364 0.509606-21.63474-8.831132-21.63474-2.039449-29.745465-18.376533-54.930053-55.485709-54.930053-36.246529 0-54.726415 21.850657-57.015551 54.930053-9.340739 0-10.05603 12.353352-8.833179 21.63474C302.174646 326.377372 309.250808 337.086272 316.123332 340.708775z" p-id="5639"></path><path d="M450.492646 704.83796l0-22.081924c24.279986 0 43.954071-19.715017 43.954071-44.019563l0-1.471514 171.095773-171.066097c4.637624-4.63353 4.637624-12.123109 0-16.726963-4.602831-4.63353-12.087293-4.63353-16.694217 0L494.446717 603.811032 494.446717 458.072787c0-31.69384-23.109324-59.101049-55.437613-65.898873l-23.64349-4.892427-49.250704 98.097202-49.253774-98.097202-23.61893 4.892427c-32.349779 6.797823-55.413054 34.205033-55.413054 65.898873l0 180.663686c0 24.304546 19.649526 44.019563 43.932582 44.019563l0 22.081924L450.492646 704.83796z" p-id="5640"></path><path d="M98.37196 552.676421c0 67.457368 54.878888 122.329093 122.30044 122.329093l1.428535 0c-6.465249-10.606569-10.337439-22.960944-10.337439-36.268018l0-16.741289c-34.46086-4.459568-61.265342-33.655518-61.265342-69.318762L150.498154 220.155119c0-38.70758 31.488155-70.188572 70.174246-70.188572l583.796186 0c38.687114 0 70.179362 31.480992 70.179362 70.188572l0 332.521303c0 38.72293-31.492248 70.199829-70.179362 70.199829L545.685705 622.87625l-26.090215 26.094308c-1.500167 9.597589-5.342682 18.170848-10.126638 26.034956l294.999734 0c67.421552 0 122.30044-54.871725 122.30044-122.329093L926.769027 220.155119c0-67.446112-54.878888-122.317837-122.30044-122.317837l-583.796186 0c-67.421552 0-122.30044 54.871725-122.30044 122.317837L98.37196 552.676421z" p-id="5641"></path><path d="M269.643742 747.759515l-91.223654 0c-44.213991 0-80.049151 35.836183-80.049151 80.012312l0 105.689111 251.296373 0L349.66731 827.771827C349.668333 783.594675 313.834196 747.759515 269.643742 747.759515z" p-id="5642"></path><path d="M559.608809 747.759515l-91.223654 0c-44.213991 0-80.053244 35.836183-80.053244 80.012312l0 105.689111 251.30149 0L639.633401 827.771827C639.633401 783.594675 603.794148 747.759515 559.608809 747.759515z" p-id="5643"></path><path d="M849.569784 747.759515l-91.223654 0c-44.211944 0-80.049151 35.836183-80.049151 80.012312l0 105.689111 251.299443 0L929.596422 827.771827C929.597445 783.594675 893.754099 747.759515 849.569784 747.759515z" p-id="5644"></path></svg>